<?xml version="1.0" encoding="utf-8"?>
<!-- Generator: Adobe Illustrator 23.1.0, SVG Export Plug-In . SVG Version: 6.00 Build 0)  -->
<svg version="1.1" xmlns="http://www.w3.org/2000/svg" xmlns:xlink="http://www.w3.org/1999/xlink" x="0px" y="0px"
	 viewBox="0 0 500 500" style="enable-background:new 0 0 500 500;" xml:space="preserve">
<style type="text/css">
	.st0{fill:#EBEBEB;}
	.st1{fill:#F5F5F5;}
	.st2{fill:#E0E0E0;}
	.st3{fill:#E6E6E6;}
	.st4{display:none;}
	.st5{display:inline;}
	.st6{fill:#407BFF;}
	.st7{opacity:0.9;fill:#FFFFFF;}
	.st8{opacity:0.2;enable-background:new    ;}
	.st9{fill:#263238;}
	.st10{opacity:0.2;fill:#FFFFFF;enable-background:new    ;}
	.st11{fill:#FFFFFF;}
	.st12{opacity:0.5;fill:#FFFFFF;enable-background:new    ;}
	.st13{opacity:0.6;fill:#FFFFFF;enable-background:new    ;}
	.st14{fill:#EBB376;}
	.st15{fill:#D58745;}
	.st16{fill:none;stroke:#263238;stroke-width:0.7247;stroke-linecap:round;stroke-linejoin:round;stroke-miterlimit:10;}
	.st17{fill:none;stroke:#263238;stroke-width:0.5;stroke-linecap:round;stroke-linejoin:round;stroke-miterlimit:10;}
</style>
<g id="Background_Complete">
	<g>
		<rect y="382.4" class="st0" width="500" height="0.25"/>
		<rect x="416.78" y="398.49" class="st0" width="33.12" height="0.25"/>
		<rect x="322.53" y="401.21" class="st0" width="8.69" height="0.25"/>
		<rect x="396.59" y="389.21" class="st0" width="19.19" height="0.25"/>
		<rect x="52.46" y="390.89" class="st0" width="43.19" height="0.25"/>
		<rect x="104.56" y="390.89" class="st0" width="6.33" height="0.25"/>
		<rect x="131.47" y="395.11" class="st0" width="93.68" height="0.25"/>
		<path class="st0" d="M237.01,337.8H43.92c-3.15,0-5.71-2.56-5.71-5.71V60.66c0-3.15,2.56-5.71,5.71-5.71h193.1
			c3.15,0,5.71,2.56,5.71,5.71v271.43C242.72,335.24,240.16,337.8,237.01,337.8z M43.92,55.2c-3.01,0-5.46,2.45-5.46,5.46v271.43
			c0,3.01,2.45,5.46,5.46,5.46h193.1c3.01,0,5.46-2.45,5.46-5.46V60.66c0-3.01-2.45-5.46-5.46-5.46H43.92z"/>
		<path class="st0" d="M453.31,337.8h-193.1c-3.15,0-5.71-2.56-5.71-5.71V60.66c0-3.15,2.56-5.71,5.71-5.71h193.1
			c3.15,0,5.71,2.56,5.71,5.71v271.43C459.02,335.24,456.46,337.8,453.31,337.8z M260.21,55.2c-3.01,0-5.46,2.45-5.46,5.46v271.43
			c0,3.01,2.45,5.46,5.46,5.46h193.1c3.01,0,5.46-2.45,5.46-5.46V60.66c0-3.01-2.45-5.46-5.46-5.46H260.21z"/>
	</g>
	<g>
		<path class="st1" d="M197.96,112.74c0-2.49,2.02-4.51,4.51-4.51c0.45,0,0.89,0.07,1.3,0.19c-0.07-0.45-0.1-0.92-0.1-1.39
			c0-5.28,4.28-9.56,9.56-9.56c0.6,0,1.19,0.06,1.76,0.16c1.47-2.4,4.11-4.01,7.13-4.01c4.58,0,8.29,3.68,8.36,8.24
			c0.05,0,0.09-0.01,0.14-0.01c4.25,0,7.7,3.45,7.7,7.7c0,4.25-3.45,7.7-7.7,7.7h-28.28l0.01-0.01
			C199.91,117.18,197.96,115.19,197.96,112.74z"/>
		<path class="st1" d="M261.59,135.97c0-1.25,1.01-2.26,2.26-2.26c0.23,0,0.44,0.03,0.65,0.1c-0.03-0.23-0.05-0.46-0.05-0.69
			c0-2.64,2.14-4.78,4.78-4.78c0.3,0,0.59,0.03,0.88,0.08c0.73-1.2,2.06-2.01,3.57-2.01c2.29,0,4.14,1.84,4.18,4.12
			c0.02,0,0.05,0,0.07,0c2.13,0,3.85,1.72,3.85,3.85c0,2.13-1.72,3.85-3.85,3.85h-14.14l0,0
			C262.57,138.19,261.59,137.19,261.59,135.97z"/>
		<path class="st1" d="M389.03,211.87c0-1.25,1.01-2.26,2.26-2.26c0.23,0,0.44,0.03,0.65,0.1c-0.03-0.23-0.05-0.46-0.05-0.69
			c0-2.64,2.14-4.78,4.78-4.78c0.3,0,0.59,0.03,0.88,0.08c0.73-1.2,2.06-2.01,3.57-2.01c2.29,0,4.14,1.84,4.18,4.12
			c0.02,0,0.05,0,0.07,0c2.13,0,3.85,1.72,3.85,3.85s-1.72,3.85-3.85,3.85h-14.14l0,0C390.01,214.09,389.03,213.09,389.03,211.87z"
			/>
		<path class="st1" d="M84.21,212.78c0-1.25,1.01-2.26,2.26-2.26c0.23,0,0.44,0.03,0.65,0.1c-0.03-0.23-0.05-0.46-0.05-0.69
			c0-2.64,2.14-4.78,4.78-4.78c0.3,0,0.59,0.03,0.88,0.08c0.73-1.2,2.06-2.01,3.57-2.01c2.29,0,4.14,1.84,4.18,4.12
			c0.02,0,0.05,0,0.07,0c2.13,0,3.85,1.72,3.85,3.85s-1.72,3.85-3.85,3.85H86.4l0,0C85.18,215,84.21,214,84.21,212.78z"/>
		<path class="st1" d="M321.83,112.95c0-1.63,1.33-2.96,2.96-2.96c0.3,0,0.58,0.04,0.85,0.13c-0.04-0.3-0.07-0.6-0.07-0.91
			c0-3.46,2.81-6.27,6.27-6.27c0.39,0,0.78,0.04,1.15,0.11c0.96-1.58,2.69-2.63,4.68-2.63c3,0,5.44,2.41,5.48,5.4
			c0.03,0,0.06,0,0.09,0c2.79,0,5.05,2.26,5.05,5.05c0,2.79-2.26,5.05-5.05,5.05H324.7l0,0
			C323.11,115.86,321.83,114.56,321.83,112.95z"/>
		<g>
			<path class="st1" d="M100.65,183.95c-0.14-0.51-0.23-1.1-0.27-1.75c-0.22-3.64-3.69-3.06-6.65-3.56
				c-2.31-0.39,3.81-6.22-0.85-8.1c-0.86-0.35-1.8-0.74-2.25-1.57c-0.58-1.09,0.01-2.52,1.01-3.23c1.01-0.71,2.3-0.86,3.53-0.89
				c0.76-0.92,0.14-2.31-0.59-3.26c-0.73-0.94-1.64-2.02-1.36-3.18c0.42-1.76,2.87-1.82,4.65-1.48c0.65-1.06,0.64-2.39,0.96-3.59
				c0.32-1.21,1.28-2.47,2.51-2.32c1.17,0.14,1.88,1.46,3.02,1.73c1.33,0.31,2.48-0.86,3.52-1.74c1.04-0.88,2.86-1.43,3.58-0.27
				c0.43,0.69,0.17,1.66,0.62,2.35c0.77,1.19,2.61,0.45,3.75-0.39c1.14-0.84,2.95-1.6,3.75-0.43c0.25,0.36,0.3,0.81,0.44,1.22
				c0.54,1.55,2.22,2.33,3.53,3.33c1.31,1,2.35,2.98,1.24,4.2c-0.55,0.6-1.51,0.84-1.78,1.61c-0.34,0.96,0.64,1.81,1.41,2.47
				c1.29,1.09,1.52,4.37-0.18,5.26c-0.71,0.38-1.76,0.49-1.94,1.28c-0.16,0.7,0.56,1.25,1.03,1.8c1.3,1.49,0.75,4.18-1.03,5.03
				c-0.41,0.2-0.91,0.36-1.06,0.78c-0.11,0.31,0.01,0.64,0.1,0.95c0.17,0.59,0.22,1.21,0.16,1.82c-0.02,0.21-0.06,0.44-0.22,0.57
				c-0.14,0.12-0.35,0.14-0.54,0.15c-2.46,0.11-3.64-0.76-5.14,1.38c-0.14,0.21-0.29,0.42-0.51,0.54c-0.2,0.12-0.44,0.15-0.68,0.17
				c-1.69,0.14-2.79-0.91-4.33-1.11c-2.14-0.27-2.59,0.83-4.48,1.72C102.64,186.83,101.2,185.97,100.65,183.95z"/>
			<path class="st1" d="M128.93,180.89c-0.14-0.51-0.23-1.1-0.27-1.75c-0.22-3.64-3.69-3.06-6.65-3.56
				c-2.31-0.39,3.81-6.22-0.85-8.1c-0.86-0.35-1.8-0.74-2.25-1.57c-0.58-1.09,0.01-2.52,1.01-3.23c1.01-0.71,2.3-0.86,3.53-0.89
				c0.76-0.92,0.14-2.31-0.59-3.26c-0.73-0.94-1.63-2.02-1.36-3.18c0.42-1.76,2.87-1.82,4.65-1.48c0.65-1.06,0.64-2.39,0.96-3.59
				c0.32-1.21,1.28-2.47,2.51-2.32c1.17,0.14,1.88,1.46,3.02,1.73c1.33,0.31,2.48-0.86,3.52-1.74c1.04-0.88,2.86-1.43,3.58-0.27
				c0.43,0.69,0.17,1.66,0.62,2.35c0.77,1.19,2.61,0.45,3.75-0.39c1.14-0.84,2.95-1.6,3.75-0.44c0.25,0.36,0.3,0.81,0.44,1.22
				c0.54,1.55,2.22,2.33,3.53,3.33c1.31,1,2.35,2.98,1.24,4.2c-0.55,0.6-1.51,0.84-1.78,1.61c-0.34,0.96,0.64,1.81,1.41,2.47
				c1.29,1.09,1.52,4.37-0.18,5.26c-0.71,0.38-1.76,0.49-1.94,1.28c-0.16,0.7,0.56,1.25,1.03,1.8c1.3,1.49,0.75,4.18-1.03,5.03
				c-0.41,0.2-0.91,0.36-1.06,0.78c-0.11,0.31,0.01,0.64,0.1,0.95c0.17,0.59,0.22,1.21,0.16,1.82c-0.02,0.21-0.06,0.44-0.22,0.57
				c-0.14,0.12-0.35,0.14-0.54,0.15c-2.46,0.11-3.64-0.76-5.14,1.38c-0.14,0.21-0.29,0.42-0.51,0.54c-0.2,0.12-0.44,0.15-0.68,0.17
				c-1.69,0.14-2.79-0.91-4.33-1.11c-2.14-0.27-2.59,0.83-4.48,1.72C130.93,183.77,129.49,182.91,128.93,180.89z"/>
			<path class="st1" d="M131.66,162.88c-0.14-0.51-0.23-1.1-0.27-1.75c-0.22-3.64-3.69-3.06-6.65-3.56
				c-2.31-0.39,3.81-6.22-0.85-8.1c-0.86-0.35-1.8-0.74-2.25-1.57c-0.58-1.09,0.01-2.52,1.01-3.23c1.01-0.71,2.3-0.86,3.53-0.89
				c0.76-0.92,0.14-2.31-0.59-3.26c-0.73-0.94-1.63-2.02-1.36-3.18c0.42-1.76,2.87-1.82,4.65-1.48c0.65-1.06,0.64-2.39,0.96-3.59
				c0.32-1.21,1.28-2.47,2.51-2.32c1.17,0.14,1.88,1.46,3.02,1.73c1.33,0.31,2.48-0.86,3.52-1.74c1.04-0.88,2.86-1.43,3.58-0.27
				c0.43,0.69,0.17,1.66,0.62,2.35c0.77,1.19,2.61,0.45,3.75-0.39c1.14-0.84,2.95-1.6,3.75-0.43c0.25,0.36,0.3,0.81,0.44,1.22
				c0.54,1.55,2.22,2.33,3.53,3.33c1.31,1,2.35,2.98,1.24,4.2c-0.55,0.6-1.51,0.84-1.78,1.61c-0.34,0.96,0.64,1.81,1.41,2.47
				c1.29,1.09,1.52,4.37-0.18,5.26c-0.71,0.38-1.76,0.49-1.94,1.28c-0.16,0.7,0.56,1.25,1.03,1.8c1.3,1.49,0.75,4.18-1.03,5.03
				c-0.41,0.2-0.91,0.36-1.06,0.78c-0.11,0.31,0.01,0.64,0.1,0.95c0.17,0.59,0.22,1.21,0.16,1.82c-0.02,0.21-0.06,0.44-0.22,0.57
				c-0.14,0.12-0.35,0.14-0.54,0.15c-2.46,0.11-3.64-0.76-5.14,1.38c-0.14,0.21-0.29,0.42-0.51,0.54c-0.2,0.12-0.44,0.15-0.68,0.17
				c-1.69,0.14-2.79-0.91-4.33-1.11c-2.14-0.27-2.59,0.83-4.48,1.72C133.66,165.76,132.22,164.9,131.66,162.88z"/>
			<path class="st1" d="M150.29,171.85c-0.14-0.51-0.23-1.1-0.27-1.75c-0.22-3.64-3.69-3.06-6.65-3.56
				c-2.31-0.39,3.81-6.22-0.85-8.1c-0.86-0.35-1.8-0.74-2.25-1.57c-0.58-1.09,0.01-2.52,1.01-3.23c1.01-0.71,2.3-0.86,3.53-0.89
				c0.76-0.92,0.14-2.31-0.59-3.26c-0.74-0.94-1.64-2.02-1.36-3.18c0.42-1.76,2.87-1.82,4.65-1.48c0.66-1.06,0.64-2.39,0.96-3.59
				c0.32-1.21,1.28-2.47,2.51-2.32c1.17,0.14,1.88,1.46,3.02,1.73c1.33,0.31,2.48-0.86,3.52-1.74c1.04-0.88,2.86-1.43,3.58-0.27
				c0.43,0.69,0.17,1.66,0.62,2.35c0.77,1.19,2.61,0.45,3.75-0.39c1.14-0.84,2.95-1.6,3.75-0.43c0.25,0.36,0.3,0.81,0.44,1.22
				c0.54,1.55,2.22,2.33,3.53,3.33c1.31,1,2.35,2.98,1.24,4.2c-0.55,0.6-1.51,0.84-1.78,1.61c-0.34,0.96,0.64,1.81,1.41,2.47
				c1.29,1.09,1.52,4.37-0.18,5.26c-0.71,0.38-1.76,0.49-1.94,1.28c-0.16,0.7,0.56,1.25,1.03,1.8c1.3,1.49,0.75,4.18-1.03,5.03
				c-0.41,0.2-0.91,0.36-1.06,0.78c-0.11,0.31,0.01,0.64,0.1,0.95c0.17,0.59,0.22,1.21,0.16,1.82c-0.02,0.21-0.06,0.44-0.22,0.57
				c-0.14,0.12-0.35,0.14-0.54,0.15c-2.46,0.11-3.64-0.76-5.14,1.38c-0.14,0.21-0.29,0.42-0.51,0.54c-0.2,0.12-0.44,0.15-0.68,0.17
				c-1.69,0.14-2.79-0.91-4.33-1.11c-2.14-0.27-2.59,0.83-4.48,1.72C152.29,174.73,150.85,173.87,150.29,171.85z"/>
			<path class="st1" d="M169.13,167.7c-0.14-0.51-0.23-1.1-0.27-1.75c-0.22-3.64-3.69-3.06-6.65-3.56c-2.31-0.39,3.81-6.22-0.85-8.1
				c-0.86-0.35-1.8-0.74-2.25-1.57c-0.58-1.09,0.01-2.52,1.01-3.23c1.01-0.71,2.3-0.86,3.53-0.89c0.76-0.92,0.14-2.31-0.59-3.26
				c-0.74-0.94-1.64-2.02-1.36-3.18c0.42-1.76,2.87-1.82,4.65-1.48c0.66-1.06,0.64-2.39,0.96-3.59c0.32-1.21,1.28-2.47,2.51-2.32
				c1.17,0.14,1.88,1.46,3.02,1.73c1.33,0.31,2.48-0.86,3.52-1.74c1.04-0.88,2.86-1.43,3.58-0.27c0.43,0.69,0.17,1.66,0.62,2.35
				c0.77,1.19,2.61,0.45,3.75-0.39c1.14-0.84,2.95-1.6,3.75-0.43c0.25,0.36,0.3,0.81,0.44,1.22c0.54,1.55,2.22,2.33,3.53,3.33
				c1.31,1,2.35,2.98,1.24,4.2c-0.55,0.6-1.51,0.84-1.78,1.61c-0.34,0.96,0.64,1.81,1.41,2.47c1.29,1.09,1.52,4.37-0.18,5.26
				c-0.71,0.38-1.76,0.49-1.94,1.28c-0.16,0.7,0.56,1.25,1.03,1.8c1.3,1.49,0.75,4.18-1.03,5.03c-0.41,0.2-0.91,0.36-1.06,0.78
				c-0.11,0.31,0.01,0.64,0.1,0.95c0.17,0.59,0.22,1.21,0.16,1.82c-0.02,0.21-0.06,0.44-0.22,0.57c-0.14,0.12-0.35,0.14-0.54,0.15
				c-2.46,0.11-3.64-0.76-5.14,1.38c-0.14,0.21-0.29,0.42-0.51,0.54c-0.2,0.12-0.44,0.15-0.68,0.17c-1.69,0.14-2.79-0.91-4.34-1.11
				c-2.14-0.27-2.59,0.83-4.48,1.72C171.12,170.58,169.68,169.73,169.13,167.7z"/>
			<path class="st1" d="M169.37,187.85c-0.11-0.41-0.18-0.87-0.21-1.38c-0.17-2.87-2.91-2.41-5.23-2.8c-1.82-0.3,3-4.9-0.67-6.38
				c-0.68-0.28-1.42-0.59-1.77-1.23c-0.46-0.86,0.01-1.98,0.8-2.54c0.79-0.56,1.81-0.68,2.78-0.7c0.6-0.73,0.11-1.82-0.47-2.56
				c-0.58-0.74-1.29-1.59-1.07-2.5c0.33-1.38,2.26-1.43,3.66-1.16c0.52-0.84,0.51-1.88,0.76-2.83c0.25-0.95,1.01-1.95,1.98-1.83
				c0.92,0.11,1.48,1.15,2.38,1.36c1.05,0.25,1.95-0.68,2.77-1.37c0.82-0.69,2.25-1.13,2.82-0.21c0.34,0.55,0.14,1.31,0.49,1.85
				c0.61,0.93,2.05,0.35,2.95-0.31c0.9-0.66,2.33-1.26,2.96-0.34c0.19,0.28,0.24,0.64,0.35,0.96c0.42,1.22,1.75,1.83,2.78,2.62
				c1.03,0.79,1.85,2.35,0.98,3.3c-0.43,0.47-1.19,0.66-1.4,1.27c-0.27,0.75,0.5,1.43,1.11,1.94c1.01,0.86,1.2,3.44-0.14,4.14
				c-0.56,0.3-1.39,0.39-1.52,1.01c-0.12,0.55,0.44,0.99,0.81,1.41c1.03,1.17,0.59,3.29-0.81,3.96c-0.32,0.15-0.72,0.28-0.84,0.62
				c-0.09,0.24,0.01,0.5,0.08,0.75c0.13,0.46,0.17,0.95,0.13,1.43c-0.02,0.16-0.05,0.34-0.17,0.45c-0.11,0.1-0.27,0.11-0.42,0.12
				c-1.93,0.09-2.87-0.6-4.05,1.08c-0.11,0.16-0.23,0.33-0.4,0.43c-0.16,0.09-0.35,0.12-0.53,0.13c-1.33,0.11-2.2-0.72-3.41-0.88
				c-1.69-0.21-2.04,0.65-3.53,1.35C170.94,190.12,169.81,189.44,169.37,187.85z"/>
			<path class="st1" d="M179.93,180.89c-0.14-0.51-0.23-1.1-0.27-1.75c-0.22-3.64-3.69-3.06-6.65-3.56
				c-2.31-0.39,3.81-6.22-0.85-8.1c-0.86-0.35-1.8-0.74-2.25-1.57c-0.58-1.09,0.01-2.52,1.01-3.23c1.01-0.71,2.3-0.86,3.53-0.89
				c0.76-0.92,0.14-2.31-0.59-3.26c-0.73-0.94-1.63-2.02-1.36-3.18c0.42-1.76,2.87-1.82,4.65-1.48c0.65-1.06,0.64-2.39,0.96-3.59
				c0.32-1.21,1.28-2.47,2.51-2.32c1.17,0.14,1.88,1.46,3.02,1.73c1.33,0.31,2.48-0.86,3.52-1.74c1.04-0.88,2.86-1.43,3.58-0.27
				c0.43,0.69,0.17,1.66,0.62,2.35c0.77,1.19,2.61,0.45,3.75-0.39c1.14-0.84,2.95-1.6,3.75-0.44c0.25,0.36,0.3,0.81,0.44,1.22
				c0.54,1.55,2.22,2.33,3.53,3.33c1.31,1,2.35,2.98,1.24,4.2c-0.55,0.6-1.51,0.84-1.78,1.61c-0.34,0.96,0.64,1.81,1.41,2.47
				c1.29,1.09,1.52,4.37-0.18,5.26c-0.71,0.38-1.76,0.49-1.94,1.28c-0.16,0.7,0.56,1.25,1.03,1.8c1.3,1.49,0.75,4.18-1.03,5.03
				c-0.41,0.2-0.91,0.36-1.06,0.78c-0.11,0.31,0.01,0.64,0.1,0.95c0.17,0.59,0.22,1.21,0.16,1.82c-0.02,0.21-0.06,0.44-0.22,0.57
				c-0.14,0.12-0.35,0.14-0.54,0.15c-2.46,0.11-3.64-0.76-5.14,1.38c-0.14,0.21-0.29,0.42-0.51,0.54c-0.2,0.12-0.44,0.15-0.68,0.17
				c-1.69,0.14-2.79-0.91-4.33-1.11c-2.14-0.27-2.59,0.83-4.48,1.72C181.92,183.77,180.48,182.91,179.93,180.89z"/>
			<path class="st1" d="M150.29,149.69c-0.14-0.51-0.23-1.1-0.27-1.75c-0.22-3.64-3.69-3.06-6.65-3.56
				c-2.31-0.39,3.81-6.22-0.85-8.1c-0.86-0.35-1.8-0.74-2.25-1.57c-0.58-1.09,0.01-2.52,1.01-3.23c1.01-0.71,2.3-0.86,3.53-0.89
				c0.76-0.92,0.14-2.31-0.59-3.26c-0.74-0.94-1.64-2.02-1.36-3.18c0.42-1.76,2.87-1.82,4.65-1.48c0.66-1.06,0.64-2.39,0.96-3.59
				c0.32-1.21,1.28-2.47,2.51-2.32c1.17,0.14,1.88,1.46,3.02,1.73c1.33,0.31,2.48-0.86,3.52-1.74c1.04-0.88,2.86-1.43,3.58-0.27
				c0.43,0.69,0.17,1.66,0.62,2.35c0.77,1.19,2.61,0.45,3.75-0.39c1.14-0.84,2.95-1.6,3.75-0.43c0.25,0.36,0.3,0.81,0.44,1.22
				c0.54,1.55,2.22,2.33,3.53,3.33c1.31,1,2.35,2.98,1.24,4.2c-0.55,0.6-1.51,0.84-1.78,1.61c-0.34,0.96,0.64,1.81,1.41,2.47
				c1.29,1.09,1.52,4.37-0.18,5.26c-0.71,0.38-1.76,0.49-1.94,1.28c-0.16,0.7,0.56,1.25,1.03,1.8c1.3,1.49,0.75,4.18-1.03,5.03
				c-0.41,0.2-0.91,0.36-1.06,0.78c-0.11,0.31,0.01,0.64,0.1,0.95c0.17,0.59,0.22,1.21,0.16,1.82c-0.02,0.21-0.06,0.44-0.22,0.57
				c-0.14,0.12-0.35,0.14-0.54,0.15c-2.46,0.11-3.64-0.76-5.14,1.38c-0.14,0.21-0.29,0.42-0.51,0.54c-0.2,0.12-0.44,0.15-0.68,0.17
				c-1.69,0.14-2.79-0.91-4.33-1.11c-2.14-0.27-2.59,0.83-4.48,1.72C152.29,152.57,150.85,151.71,150.29,149.69z"/>
			<path class="st1" d="M126.1,150.93c-0.14-0.51-0.23-1.1-0.27-1.75c-0.22-3.64-3.69-3.06-6.65-3.56c-2.31-0.39,3.81-6.22-0.85-8.1
				c-0.86-0.35-1.8-0.74-2.25-1.57c-0.58-1.09,0.01-2.52,1.01-3.23c1.01-0.71,2.3-0.86,3.53-0.89c0.76-0.92,0.14-2.31-0.59-3.26
				c-0.73-0.94-1.64-2.02-1.36-3.18c0.42-1.76,2.87-1.82,4.65-1.48c0.66-1.06,0.64-2.39,0.96-3.59c0.32-1.21,1.28-2.47,2.51-2.32
				c1.17,0.14,1.88,1.46,3.02,1.73c1.33,0.31,2.48-0.86,3.52-1.74s2.86-1.43,3.58-0.27c0.43,0.69,0.17,1.66,0.62,2.35
				c0.77,1.19,2.61,0.45,3.75-0.39c1.14-0.84,2.95-1.6,3.75-0.43c0.25,0.36,0.3,0.81,0.44,1.22c0.54,1.55,2.22,2.33,3.53,3.33
				c1.31,1,2.35,2.98,1.24,4.2c-0.55,0.6-1.51,0.84-1.78,1.61c-0.34,0.96,0.64,1.81,1.41,2.47c1.29,1.09,1.52,4.37-0.18,5.26
				c-0.71,0.38-1.76,0.49-1.94,1.28c-0.16,0.7,0.56,1.25,1.03,1.8c1.3,1.49,0.75,4.18-1.03,5.03c-0.41,0.2-0.91,0.36-1.06,0.78
				c-0.11,0.31,0.01,0.64,0.1,0.95c0.17,0.59,0.22,1.21,0.16,1.82c-0.02,0.21-0.06,0.44-0.22,0.57c-0.14,0.12-0.35,0.14-0.54,0.15
				c-2.46,0.11-3.64-0.76-5.14,1.38c-0.14,0.21-0.29,0.42-0.51,0.54c-0.2,0.12-0.44,0.15-0.68,0.17c-1.69,0.14-2.79-0.91-4.34-1.11
				c-2.14-0.27-2.59,0.83-4.48,1.72C128.1,153.81,126.66,152.95,126.1,150.93z"/>
			<path class="st1" d="M111.41,160.83c-0.14-0.51-0.23-1.1-0.27-1.75c-0.22-3.64-3.69-3.06-6.65-3.56
				c-2.31-0.39,3.81-6.22-0.85-8.1c-0.86-0.35-1.8-0.74-2.25-1.57c-0.58-1.09,0.01-2.52,1.01-3.23c1.01-0.71,2.3-0.86,3.53-0.89
				c0.76-0.92,0.14-2.31-0.59-3.26c-0.74-0.94-1.64-2.02-1.36-3.18c0.42-1.76,2.87-1.82,4.65-1.48c0.65-1.06,0.64-2.39,0.96-3.59
				c0.32-1.21,1.28-2.47,2.51-2.32c1.17,0.14,1.88,1.46,3.02,1.73c1.33,0.31,2.48-0.86,3.52-1.74c1.04-0.88,2.86-1.43,3.58-0.27
				c0.43,0.69,0.17,1.66,0.62,2.35c0.77,1.19,2.61,0.45,3.75-0.39c1.14-0.84,2.95-1.6,3.75-0.43c0.25,0.36,0.3,0.81,0.44,1.22
				c0.54,1.55,2.22,2.33,3.53,3.33c1.31,1,2.35,2.98,1.24,4.2c-0.55,0.6-1.51,0.84-1.78,1.61c-0.34,0.96,0.64,1.81,1.41,2.47
				c1.29,1.09,1.52,4.37-0.18,5.26c-0.71,0.38-1.76,0.49-1.94,1.28c-0.16,0.7,0.56,1.25,1.03,1.8c1.3,1.49,0.75,4.18-1.03,5.03
				c-0.41,0.2-0.91,0.36-1.06,0.78c-0.11,0.31,0.01,0.64,0.1,0.95c0.17,0.59,0.22,1.21,0.16,1.82c-0.02,0.21-0.06,0.44-0.22,0.57
				c-0.14,0.12-0.35,0.14-0.54,0.15c-2.46,0.11-3.64-0.76-5.14,1.38c-0.14,0.21-0.29,0.42-0.51,0.54c-0.2,0.12-0.44,0.15-0.68,0.17
				c-1.69,0.14-2.79-0.91-4.33-1.11c-2.14-0.27-2.59,0.83-4.48,1.72C113.4,163.71,111.96,162.85,111.41,160.83z"/>
			<path class="st1" d="M115.86,173.34c0,0,6.15,8.69,8.26,11.44c2.12,2.75,12.72,19.92,14.16,31.27c0.15,1.21,0.31,2.25,0.45,3.17
				c-4.56,30.08-3.84,144.93-3.68,154.35h18.7c-3.56-70.58-2.9-167.56-2.45-170.53c0.48-3.14,6.51-15.09,15.84-20
				c9.32-4.91,17.38-21.16,17.38-21.16h-2.97c0,0-5.51,9.96-13.35,15.47c-1.14,0.8-2.32,1.47-3.53,2.09
				c0.28-8.98-3.12-17.56-3.12-17.56l-1.6,1.48c2.17,8.87,1.88,14.55,1.23,17.82c-2.63,1.32-5.36,2.85-8.11,5.43
				c-8.13-10.58-12.71-34.76-12.71-34.76l-2.08,1.14c0,0,0.68,6.57,2.69,14.83c1.52,6.26,6.01,18.05,8.1,23.4
				c-2.07,2.88-4.13,6.6-6.14,11.53c-0.23-0.35-0.49-0.67-0.78-0.94c-5.3-4.79-15.26-27.42-15.26-27.42
				c-2.41-5.26,1.27-19.07,1.27-19.07h-2.78l-1.25,12.08l-6.99-7.63l-1.27,1.06l7.42,9.54l3.81,12.08l-9.96-11.02L115.86,173.34z"/>
		</g>
		<g>
			<path class="st1" d="M396.95,190.57c0.13-0.48,0.21-1.04,0.25-1.65c0.2-3.43,3.48-2.88,6.26-3.35c2.17-0.36-3.58-5.86,0.8-7.63
				c0.81-0.33,1.7-0.7,2.12-1.48c0.55-1.02-0.01-2.37-0.96-3.04c-0.95-0.67-2.17-0.81-3.33-0.83c-0.72-0.87-0.13-2.18,0.56-3.07
				c0.69-0.89,1.54-1.9,1.28-2.99c-0.4-1.65-2.71-1.71-4.38-1.39c-0.62-1-0.6-2.25-0.9-3.38c-0.3-1.14-1.2-2.33-2.37-2.18
				c-1.1,0.13-1.77,1.37-2.85,1.63c-1.25,0.29-2.33-0.81-3.31-1.64c-0.98-0.83-2.7-1.35-3.37-0.25c-0.4,0.65-0.16,1.57-0.58,2.21
				c-0.73,1.12-2.46,0.42-3.53-0.37c-1.07-0.79-2.78-1.51-3.54-0.41c-0.23,0.34-0.28,0.76-0.42,1.15c-0.51,1.46-2.09,2.19-3.32,3.13
				c-1.23,0.94-2.21,2.81-1.17,3.95c0.51,0.57,1.42,0.79,1.68,1.52c0.32,0.9-0.6,1.71-1.33,2.33c-1.21,1.03-1.43,4.11,0.17,4.96
				c0.67,0.35,1.66,0.46,1.82,1.2c0.15,0.66-0.53,1.18-0.97,1.69c-1.23,1.4-0.71,3.93,0.97,4.74c0.38,0.18,0.86,0.34,1,0.74
				c0.1,0.29-0.01,0.6-0.09,0.9c-0.16,0.56-0.21,1.14-0.15,1.72c0.02,0.2,0.06,0.41,0.21,0.54c0.14,0.12,0.33,0.14,0.51,0.14
				c2.31,0.1,3.43-0.72,4.84,1.3c0.14,0.19,0.28,0.39,0.48,0.51c0.19,0.11,0.42,0.14,0.64,0.16c1.59,0.13,2.63-0.86,4.08-1.05
				c2.02-0.26,2.44,0.78,4.22,1.62C395.07,193.28,396.42,192.47,396.95,190.57z"/>
			<path class="st1" d="M370.3,187.69c0.13-0.48,0.21-1.04,0.25-1.65c0.2-3.43,3.48-2.88,6.26-3.35c2.18-0.36-3.58-5.86,0.8-7.63
				c0.81-0.33,1.7-0.7,2.12-1.47c0.55-1.02-0.01-2.37-0.96-3.04s-2.17-0.81-3.33-0.83c-0.72-0.87-0.13-2.18,0.56-3.07
				c0.69-0.89,1.54-1.9,1.28-2.99c-0.4-1.65-2.71-1.71-4.38-1.39c-0.62-1-0.6-2.25-0.9-3.38c-0.3-1.14-1.2-2.33-2.37-2.19
				c-1.1,0.13-1.77,1.37-2.85,1.63c-1.25,0.29-2.33-0.81-3.31-1.64c-0.98-0.83-2.7-1.35-3.37-0.25c-0.4,0.65-0.16,1.57-0.58,2.21
				c-0.73,1.12-2.46,0.42-3.53-0.37c-1.07-0.79-2.78-1.51-3.54-0.41c-0.23,0.34-0.28,0.76-0.42,1.15c-0.51,1.46-2.09,2.19-3.32,3.13
				c-1.23,0.94-2.21,2.81-1.17,3.95c0.51,0.57,1.42,0.79,1.68,1.52c0.32,0.9-0.6,1.71-1.33,2.33c-1.21,1.03-1.43,4.11,0.17,4.96
				c0.67,0.35,1.66,0.46,1.82,1.2c0.15,0.66-0.53,1.18-0.97,1.69c-1.23,1.4-0.71,3.93,0.97,4.74c0.38,0.18,0.86,0.34,1,0.74
				c0.1,0.29-0.01,0.6-0.09,0.9c-0.16,0.56-0.21,1.14-0.15,1.72c0.02,0.2,0.06,0.41,0.21,0.54c0.14,0.12,0.33,0.13,0.51,0.14
				c2.31,0.1,3.43-0.72,4.84,1.3c0.14,0.19,0.28,0.39,0.48,0.51c0.19,0.11,0.42,0.14,0.64,0.16c1.59,0.13,2.63-0.86,4.08-1.05
				c2.02-0.26,2.44,0.78,4.22,1.62C368.42,190.4,369.78,189.6,370.3,187.69z"/>
			<path class="st1" d="M367.73,170.72c0.13-0.48,0.21-1.04,0.25-1.65c0.2-3.43,3.48-2.88,6.26-3.35c2.17-0.36-3.58-5.86,0.8-7.63
				c0.81-0.33,1.7-0.7,2.12-1.48c0.55-1.02-0.01-2.37-0.96-3.04c-0.95-0.67-2.17-0.81-3.33-0.83c-0.72-0.87-0.13-2.18,0.56-3.07
				c0.69-0.89,1.54-1.9,1.28-2.99c-0.4-1.65-2.71-1.71-4.38-1.39c-0.62-1-0.6-2.25-0.9-3.38c-0.3-1.14-1.2-2.33-2.37-2.18
				c-1.1,0.13-1.77,1.37-2.85,1.63c-1.25,0.29-2.33-0.81-3.31-1.64c-0.98-0.83-2.7-1.35-3.37-0.25c-0.4,0.65-0.16,1.57-0.58,2.21
				c-0.73,1.12-2.46,0.42-3.53-0.37c-1.07-0.79-2.78-1.51-3.54-0.41c-0.23,0.34-0.28,0.76-0.42,1.15c-0.51,1.46-2.09,2.19-3.32,3.13
				c-1.23,0.94-2.21,2.81-1.17,3.95c0.51,0.57,1.42,0.79,1.68,1.51c0.32,0.9-0.6,1.71-1.33,2.33c-1.21,1.03-1.43,4.11,0.17,4.96
				c0.67,0.35,1.66,0.46,1.82,1.2c0.15,0.66-0.53,1.18-0.97,1.69c-1.23,1.4-0.71,3.93,0.97,4.74c0.38,0.18,0.86,0.34,1,0.74
				c0.1,0.29-0.01,0.6-0.09,0.9c-0.16,0.56-0.21,1.14-0.15,1.72c0.02,0.2,0.06,0.41,0.21,0.54c0.14,0.12,0.33,0.13,0.51,0.14
				c2.31,0.1,3.43-0.72,4.84,1.3c0.14,0.19,0.28,0.39,0.48,0.51c0.19,0.11,0.42,0.14,0.64,0.16c1.59,0.13,2.63-0.86,4.08-1.05
				c2.02-0.26,2.44,0.78,4.22,1.62C365.86,173.44,367.21,172.63,367.73,170.72z"/>
			<path class="st1" d="M350.18,179.17c0.13-0.48,0.21-1.04,0.25-1.65c0.2-3.43,3.48-2.88,6.26-3.35c2.17-0.36-3.58-5.86,0.8-7.63
				c0.81-0.33,1.7-0.7,2.12-1.48c0.55-1.02-0.01-2.37-0.96-3.04c-0.95-0.67-2.17-0.81-3.33-0.83c-0.72-0.87-0.13-2.18,0.56-3.07
				c0.69-0.89,1.54-1.9,1.28-2.99c-0.4-1.65-2.71-1.71-4.38-1.39c-0.62-1-0.6-2.25-0.9-3.38c-0.3-1.14-1.2-2.33-2.37-2.19
				c-1.1,0.13-1.77,1.37-2.85,1.63c-1.25,0.29-2.33-0.81-3.31-1.64c-0.98-0.83-2.7-1.35-3.37-0.25c-0.4,0.65-0.16,1.57-0.58,2.21
				c-0.73,1.12-2.46,0.42-3.53-0.37c-1.07-0.79-2.78-1.51-3.54-0.41c-0.23,0.34-0.28,0.76-0.42,1.15c-0.51,1.46-2.09,2.19-3.32,3.13
				c-1.23,0.94-2.21,2.81-1.17,3.95c0.51,0.57,1.42,0.79,1.68,1.51c0.32,0.9-0.6,1.71-1.33,2.33c-1.21,1.03-1.43,4.11,0.17,4.96
				c0.67,0.35,1.66,0.46,1.82,1.2c0.15,0.66-0.53,1.18-0.97,1.69c-1.23,1.4-0.71,3.93,0.97,4.74c0.38,0.18,0.86,0.34,1,0.74
				c0.1,0.29-0.01,0.6-0.09,0.9c-0.16,0.56-0.21,1.14-0.15,1.72c0.02,0.2,0.06,0.41,0.21,0.54c0.14,0.12,0.33,0.13,0.51,0.14
				c2.31,0.1,3.43-0.72,4.84,1.3c0.14,0.19,0.28,0.39,0.48,0.51c0.19,0.11,0.42,0.14,0.64,0.16c1.59,0.13,2.63-0.86,4.08-1.05
				c2.02-0.26,2.44,0.78,4.22,1.62C348.3,181.89,349.66,181.08,350.18,179.17z"/>
			<path class="st1" d="M332.44,175.27c0.13-0.48,0.21-1.04,0.25-1.65c0.2-3.43,3.48-2.88,6.26-3.35c2.17-0.36-3.58-5.86,0.8-7.63
				c0.81-0.33,1.7-0.7,2.12-1.48c0.55-1.02-0.01-2.37-0.96-3.04c-0.95-0.67-2.17-0.81-3.33-0.83c-0.72-0.87-0.13-2.18,0.56-3.07
				c0.69-0.89,1.54-1.9,1.28-2.99c-0.4-1.65-2.71-1.71-4.38-1.39c-0.62-1-0.6-2.25-0.9-3.38c-0.3-1.14-1.2-2.33-2.37-2.18
				c-1.1,0.13-1.77,1.37-2.85,1.63c-1.25,0.29-2.33-0.81-3.31-1.64c-0.98-0.83-2.7-1.35-3.37-0.25c-0.4,0.65-0.16,1.57-0.58,2.21
				c-0.73,1.12-2.46,0.42-3.53-0.37c-1.07-0.79-2.78-1.51-3.54-0.41c-0.23,0.34-0.28,0.76-0.42,1.15c-0.51,1.46-2.09,2.19-3.32,3.13
				c-1.23,0.94-2.21,2.81-1.17,3.95c0.51,0.57,1.42,0.79,1.68,1.51c0.32,0.9-0.6,1.71-1.33,2.33c-1.21,1.03-1.43,4.11,0.17,4.96
				c0.67,0.35,1.66,0.46,1.82,1.2c0.15,0.66-0.53,1.18-0.97,1.69c-1.23,1.4-0.71,3.93,0.97,4.74c0.38,0.18,0.86,0.34,1,0.74
				c0.1,0.29-0.01,0.6-0.09,0.9c-0.16,0.56-0.21,1.14-0.15,1.72c0.02,0.2,0.06,0.41,0.21,0.54c0.14,0.12,0.33,0.13,0.51,0.14
				c2.31,0.1,3.43-0.72,4.84,1.3c0.14,0.19,0.28,0.39,0.48,0.51c0.19,0.11,0.42,0.14,0.64,0.16c1.59,0.13,2.63-0.86,4.08-1.05
				c2.02-0.26,2.44,0.78,4.22,1.62C330.56,177.98,331.92,177.17,332.44,175.27z"/>
			<path class="st1" d="M332.21,194.25c0.11-0.38,0.17-0.82,0.2-1.3c0.16-2.7,2.74-2.27,4.93-2.64c1.71-0.29-2.82-4.61,0.63-6.01
				c0.64-0.26,1.34-0.55,1.67-1.16c0.43-0.81-0.01-1.87-0.75-2.39c-0.75-0.53-1.71-0.64-2.62-0.66c-0.56-0.68-0.11-1.72,0.44-2.41
				c0.55-0.7,1.21-1.49,1.01-2.36c-0.31-1.3-2.13-1.35-3.45-1.1c-0.49-0.79-0.48-1.77-0.71-2.66c-0.24-0.89-0.95-1.83-1.86-1.72
				c-0.86,0.11-1.39,1.08-2.24,1.28c-0.98,0.23-1.84-0.64-2.61-1.29c-0.77-0.65-2.12-1.06-2.66-0.2c-0.32,0.52-0.13,1.23-0.46,1.74
				c-0.57,0.88-1.93,0.33-2.78-0.29c-0.84-0.62-2.19-1.19-2.78-0.32c-0.18,0.26-0.22,0.6-0.33,0.9c-0.4,1.15-1.65,1.73-2.62,2.47
				c-0.97,0.74-1.74,2.21-0.92,3.11c0.41,0.45,1.12,0.63,1.32,1.19c0.25,0.71-0.47,1.34-1.05,1.83c-0.95,0.81-1.13,3.24,0.13,3.9
				c0.53,0.28,1.31,0.36,1.44,0.95c0.12,0.52-0.41,0.93-0.77,1.33c-0.97,1.11-0.56,3.1,0.77,3.73c0.3,0.15,0.68,0.26,0.79,0.58
				c0.08,0.23-0.01,0.47-0.07,0.71c-0.12,0.44-0.16,0.9-0.12,1.35c0.01,0.15,0.05,0.32,0.16,0.42c0.11,0.09,0.26,0.11,0.4,0.11
				c1.82,0.08,2.7-0.56,3.81,1.02c0.11,0.15,0.22,0.31,0.38,0.4c0.15,0.09,0.33,0.11,0.5,0.13c1.25,0.1,2.07-0.68,3.22-0.82
				c1.59-0.2,1.92,0.62,3.32,1.27C330.73,196.38,331.8,195.75,332.21,194.25z"/>
			<path class="st1" d="M322.27,187.69c0.13-0.48,0.21-1.04,0.25-1.65c0.2-3.43,3.48-2.88,6.26-3.35c2.17-0.36-3.58-5.86,0.8-7.63
				c0.81-0.33,1.7-0.7,2.12-1.47c0.55-1.02-0.01-2.37-0.96-3.04c-0.95-0.67-2.17-0.81-3.33-0.83c-0.72-0.87-0.13-2.18,0.56-3.07
				c0.69-0.89,1.54-1.9,1.28-2.99c-0.4-1.65-2.71-1.71-4.38-1.39c-0.62-1-0.6-2.25-0.9-3.38c-0.3-1.14-1.2-2.33-2.37-2.19
				c-1.1,0.13-1.77,1.37-2.85,1.63c-1.25,0.29-2.33-0.81-3.31-1.64c-0.98-0.83-2.7-1.35-3.37-0.25c-0.4,0.65-0.16,1.57-0.58,2.21
				c-0.73,1.12-2.46,0.42-3.53-0.37c-1.07-0.79-2.78-1.51-3.54-0.41c-0.23,0.34-0.28,0.76-0.42,1.15c-0.51,1.46-2.09,2.19-3.32,3.13
				c-1.23,0.94-2.21,2.81-1.17,3.95c0.51,0.57,1.42,0.79,1.68,1.52c0.32,0.9-0.6,1.71-1.33,2.33c-1.21,1.03-1.43,4.11,0.17,4.96
				c0.67,0.35,1.66,0.46,1.82,1.2c0.15,0.66-0.53,1.18-0.97,1.69c-1.23,1.4-0.71,3.93,0.97,4.74c0.38,0.18,0.86,0.34,1,0.74
				c0.1,0.29-0.01,0.6-0.09,0.9c-0.16,0.56-0.21,1.14-0.15,1.72c0.02,0.2,0.06,0.41,0.21,0.54c0.14,0.12,0.33,0.13,0.51,0.14
				c2.31,0.1,3.43-0.72,4.84,1.3c0.14,0.19,0.28,0.39,0.48,0.51c0.19,0.11,0.42,0.14,0.64,0.16c1.59,0.13,2.63-0.86,4.08-1.05
				c2.02-0.26,2.44,0.78,4.22,1.62C320.39,190.4,321.75,189.6,322.27,187.69z"/>
			<path class="st1" d="M350.18,158.3c0.13-0.48,0.21-1.04,0.25-1.65c0.2-3.43,3.48-2.88,6.26-3.35c2.17-0.36-3.58-5.86,0.8-7.63
				c0.81-0.33,1.7-0.7,2.12-1.47c0.55-1.02-0.01-2.37-0.96-3.04c-0.95-0.67-2.17-0.81-3.33-0.83c-0.72-0.87-0.13-2.18,0.56-3.07
				c0.69-0.89,1.54-1.9,1.28-2.99c-0.4-1.65-2.71-1.71-4.38-1.39c-0.62-1-0.6-2.25-0.9-3.38c-0.3-1.14-1.2-2.33-2.37-2.19
				c-1.1,0.13-1.77,1.37-2.85,1.63c-1.25,0.29-2.33-0.81-3.31-1.64c-0.98-0.83-2.7-1.35-3.37-0.25c-0.4,0.65-0.16,1.57-0.58,2.21
				c-0.73,1.12-2.46,0.42-3.53-0.37c-1.07-0.79-2.78-1.51-3.54-0.41c-0.23,0.34-0.28,0.76-0.42,1.15c-0.51,1.46-2.09,2.19-3.32,3.13
				c-1.23,0.94-2.21,2.81-1.17,3.95c0.51,0.57,1.42,0.79,1.68,1.51c0.32,0.9-0.6,1.71-1.33,2.33c-1.21,1.03-1.43,4.11,0.17,4.96
				c0.67,0.35,1.66,0.46,1.82,1.2c0.15,0.66-0.53,1.18-0.97,1.69c-1.23,1.4-0.71,3.93,0.97,4.74c0.38,0.18,0.86,0.34,1,0.74
				c0.1,0.29-0.01,0.6-0.09,0.9c-0.16,0.56-0.21,1.14-0.15,1.72c0.02,0.2,0.06,0.41,0.21,0.54c0.14,0.12,0.33,0.13,0.51,0.14
				c2.31,0.1,3.43-0.72,4.84,1.3c0.14,0.19,0.28,0.39,0.48,0.51c0.19,0.11,0.42,0.14,0.64,0.16c1.59,0.13,2.63-0.86,4.08-1.05
				c2.02-0.26,2.44,0.78,4.22,1.62C348.3,161.02,349.66,160.21,350.18,158.3z"/>
			<path class="st1" d="M372.97,159.47c0.13-0.48,0.21-1.04,0.25-1.65c0.2-3.43,3.48-2.88,6.26-3.35c2.18-0.36-3.58-5.86,0.8-7.63
				c0.81-0.33,1.7-0.7,2.12-1.47c0.55-1.02-0.01-2.37-0.96-3.04c-0.95-0.67-2.17-0.81-3.33-0.83c-0.72-0.87-0.13-2.18,0.56-3.07
				c0.69-0.89,1.54-1.9,1.28-2.99c-0.4-1.65-2.71-1.71-4.38-1.39c-0.62-1-0.6-2.25-0.9-3.38c-0.3-1.14-1.2-2.33-2.37-2.19
				c-1.1,0.13-1.77,1.37-2.85,1.63c-1.25,0.29-2.33-0.81-3.31-1.64c-0.98-0.83-2.7-1.35-3.37-0.25c-0.4,0.65-0.16,1.57-0.58,2.21
				c-0.73,1.12-2.46,0.42-3.53-0.37c-1.07-0.79-2.78-1.51-3.54-0.41c-0.23,0.34-0.28,0.76-0.42,1.15c-0.51,1.46-2.09,2.19-3.32,3.13
				c-1.23,0.94-2.21,2.81-1.17,3.95c0.51,0.57,1.42,0.79,1.68,1.51c0.32,0.9-0.6,1.71-1.33,2.33c-1.21,1.03-1.43,4.11,0.17,4.96
				c0.67,0.35,1.66,0.46,1.82,1.2c0.15,0.66-0.53,1.18-0.97,1.69c-1.23,1.4-0.71,3.93,0.97,4.74c0.38,0.18,0.86,0.34,1,0.74
				c0.1,0.29-0.01,0.6-0.09,0.9c-0.16,0.56-0.21,1.14-0.15,1.72c0.02,0.2,0.06,0.41,0.21,0.54c0.14,0.12,0.33,0.13,0.51,0.14
				c2.31,0.1,3.43-0.72,4.84,1.3c0.14,0.19,0.28,0.39,0.48,0.51c0.19,0.11,0.42,0.14,0.64,0.16c1.59,0.13,2.63-0.86,4.08-1.05
				c2.02-0.26,2.44,0.78,4.22,1.62C371.09,162.18,372.45,161.37,372.97,159.47z"/>
			<path class="st1" d="M386.81,168.79c0.13-0.48,0.21-1.04,0.25-1.65c0.2-3.43,3.48-2.88,6.26-3.35c2.18-0.36-3.58-5.86,0.8-7.63
				c0.81-0.33,1.7-0.7,2.12-1.48c0.55-1.02-0.01-2.37-0.96-3.04s-2.17-0.81-3.33-0.83c-0.72-0.87-0.13-2.18,0.56-3.07
				c0.69-0.89,1.54-1.9,1.28-2.99c-0.4-1.65-2.71-1.71-4.38-1.39c-0.62-1-0.6-2.25-0.9-3.38c-0.3-1.14-1.2-2.33-2.37-2.19
				c-1.1,0.13-1.77,1.37-2.85,1.63c-1.25,0.29-2.33-0.81-3.31-1.64c-0.98-0.83-2.7-1.35-3.37-0.25c-0.4,0.65-0.16,1.57-0.58,2.21
				c-0.73,1.12-2.46,0.42-3.53-0.37c-1.07-0.79-2.78-1.51-3.54-0.41c-0.23,0.34-0.28,0.76-0.42,1.15c-0.51,1.46-2.09,2.19-3.32,3.13
				c-1.23,0.94-2.21,2.81-1.17,3.95c0.51,0.57,1.42,0.79,1.68,1.52c0.32,0.9-0.6,1.71-1.33,2.33c-1.21,1.03-1.43,4.11,0.17,4.96
				c0.67,0.35,1.66,0.46,1.82,1.2c0.15,0.66-0.53,1.18-0.97,1.69c-1.23,1.4-0.71,3.93,0.97,4.74c0.38,0.18,0.86,0.34,1,0.74
				c0.1,0.29-0.01,0.6-0.09,0.9c-0.16,0.56-0.21,1.14-0.15,1.72c0.02,0.2,0.06,0.41,0.21,0.54c0.14,0.12,0.33,0.13,0.51,0.14
				c2.31,0.1,3.43-0.72,4.84,1.3c0.14,0.19,0.28,0.39,0.48,0.51c0.19,0.11,0.42,0.14,0.64,0.16c1.59,0.13,2.63-0.86,4.08-1.05
				c2.02-0.26,2.44,0.78,4.22,1.62C384.93,171.51,386.29,170.7,386.81,168.79z"/>
			<path class="st1" d="M382.62,180.58c0,0-5.79,8.18-7.79,10.78s-11.98,18.76-13.34,29.46c-0.15,1.14-0.29,2.12-0.43,2.98
				c4.29,28.34,3.62,142.79,3.47,151.67h-19.21c2.1-87.67,4.33-164.11,3.9-166.9c-0.45-2.96-6.14-14.21-14.92-18.84
				c-8.78-4.62-16.37-19.93-16.37-19.93h2.8c0,0,5.19,9.38,12.58,14.57c1.07,0.75,2.18,1.38,3.32,1.97
				c-0.26-8.45,2.94-16.54,2.94-16.54l1.51,1.4c-2.04,8.36-1.77,13.71-1.15,16.78c2.48,1.24,5.05,2.68,7.64,5.11
				c7.66-9.96,11.97-32.75,11.97-32.75l1.96,1.07c0,0-0.64,6.19-2.53,13.97c-1.44,5.9-5.66,17-7.63,22.04
				c1.95,2.71,3.89,6.22,5.79,10.86c0.21-0.33,0.46-0.63,0.74-0.89c4.99-4.51,14.37-25.83,14.37-25.83
				c2.27-4.96-1.2-17.97-1.2-17.97h2.62l1.17,11.38l6.59-7.19l1.2,1l-6.99,8.98l-3.59,11.38l9.38-10.38L382.62,180.58z"/>
		</g>
		<rect x="84.21" y="297.97" class="st2" width="334.93" height="11.35"/>
		<g>
			<polygon class="st3" points="92.1,368.47 76.32,368.47 76.32,268.89 84.21,263.28 92.1,268.89 			"/>
			<polygon class="st3" points="120.01,368.47 104.23,368.47 104.23,268.89 112.12,263.28 120.01,268.89 			"/>
			<polygon class="st3" points="147.92,368.47 132.14,368.47 132.14,268.89 140.03,263.28 147.92,268.89 			"/>
			<polygon class="st3" points="175.83,368.47 160.06,368.47 160.06,268.89 167.94,263.28 175.83,268.89 			"/>
			<polygon class="st3" points="203.74,368.47 187.97,368.47 187.97,268.89 195.85,263.28 203.74,268.89 			"/>
			<polygon class="st3" points="231.65,368.47 215.88,368.47 215.88,268.89 223.76,263.28 231.65,268.89 			"/>
			<polygon class="st3" points="259.56,368.47 243.79,368.47 243.79,268.89 251.68,263.28 259.56,268.89 			"/>
			<polygon class="st3" points="287.47,368.47 271.7,368.47 271.7,268.89 279.59,263.28 287.47,268.89 			"/>
			<polygon class="st3" points="315.39,368.47 299.61,368.47 299.61,268.89 307.5,263.28 315.39,268.89 			"/>
			<polygon class="st3" points="343.3,368.47 327.52,368.47 327.52,268.89 335.41,263.28 343.3,268.89 			"/>
			<polygon class="st3" points="371.21,368.47 355.43,368.47 355.43,268.89 363.32,263.28 371.21,268.89 			"/>
			<polygon class="st3" points="399.12,368.47 383.35,368.47 383.35,268.89 391.23,263.28 399.12,268.89 			"/>
			<polygon class="st3" points="427.03,368.47 411.26,368.47 411.26,268.89 419.14,263.28 427.03,268.89 			"/>
		</g>
		<path class="st2" d="M415.03,369.56c0,0,2.61-8.75-2.67-10.49c-5.28-1.74-8.42-5.83-8.24-10.46c0.18-4.63-5.38-9.13-9.55-4.79
			c-4.17,4.34-3.61-3.33-9.17-5.2c-5.56-1.86-10.27,2.66-8.75,6.79s-3.96,6.71-10.53,3.2c-6.57-3.51-13.8,2.88-12.41,7.88
			c1.39,5,0.25,5.56-3.9,3.89c-4.16-1.67-11.59,3.06-8.99,9.17C343.42,375.67,415.03,369.56,415.03,369.56z"/>
		<path class="st2" d="M134.38,368.3c0,0,2.03-6.79-2.07-8.14c-4.1-1.35-6.53-4.53-6.4-8.12c0.14-3.59-4.18-7.09-7.42-3.72
			c-3.24,3.37-2.81-2.59-7.12-4.03c-4.32-1.45-7.97,2.06-6.79,5.27c1.18,3.21-3.08,5.21-8.18,2.48c-5.1-2.73-10.71,2.24-9.63,6.12
			c1.08,3.88,0.2,4.32-3.03,3.02c-3.23-1.29-9,2.37-6.98,7.12C78.79,373.05,134.38,368.3,134.38,368.3z"/>
		<path class="st2" d="M235.83,369.11c4.67-4.67,0.47-12.62-4.21-13.55c-4.67-0.93-9.37-9.16-9.59-14.39
			c-0.22-5.23-8.63-21.33-21.71-11.39c-13.08,9.94-9.11,1.46-18.57-1.33c-9.46-2.79-15.43,5.24-11.28,11.27
			c0,0-9.51-2.38-13.42,6.49c-3.92,8.88,0,14.39,0,14.39s-17.88-0.53-16.27,10.53C142.38,382.19,235.83,369.11,235.83,369.11z"/>
		<g>
			<path class="st0" d="M69.64,369.39v12.8h360.71v-12.8c0-2.22-1.55-4.02-3.78-4.02H73.42C71.2,365.37,69.64,367.16,69.64,369.39z"
				/>
			<g>
				<rect x="387.37" y="365.37" class="st1" width="22.43" height="16.82"/>
				<rect x="345.32" y="365.37" class="st1" width="21.49" height="16.82"/>
				<rect x="302.33" y="365.37" class="st1" width="22.43" height="16.82"/>
				<rect x="260.28" y="365.37" class="st1" width="21.49" height="16.82"/>
				<rect x="218.23" y="365.37" class="st1" width="21.49" height="16.82"/>
				<rect x="175.24" y="365.37" class="st1" width="22.43" height="16.82"/>
				<rect x="133.19" y="365.37" class="st1" width="21.49" height="16.82"/>
				<rect x="90.2" y="365.37" class="st1" width="22.43" height="16.82"/>
			</g>
		</g>
	</g>
</g>
<g id="Background_Simple" class="st4">
	<g class="st5">
		<path class="st6" d="M88.09,103.18c27.92-59.45,127.06-51.06,165.32-9.26c38.26,41.81,50.7,68.6,85.21,52.98
			c34.51-15.62,78.52-11.44,81.04,38.16s-37.91,108.26-102.09,125.61c-64.18,17.35-64.16,78.76-149.1,66.37
			c-46.31-6.76-47.37-56.86-40.83-98.3S55.71,172.12,88.09,103.18z"/>
		<path class="st7" d="M88.09,103.18c27.92-59.45,127.06-51.06,165.32-9.26c38.26,41.81,50.7,68.6,85.21,52.98
			c34.51-15.62,78.52-11.44,81.04,38.16s-37.91,108.26-102.09,125.61c-64.18,17.35-64.16,78.76-149.1,66.37
			c-46.31-6.76-47.37-56.86-40.83-98.3S55.71,172.12,88.09,103.18z"/>
	</g>
</g>
<g id="Shadow_1_">
	<ellipse id="_x3C_Path_x3E__359_" class="st1" cx="250" cy="416.24" rx="193.89" ry="11.32"/>
</g>
<g id="Trash_bin_1">
	<g>
		<g>
			<polygon class="st6" points="322.96,418.15 266.71,418.15 265.92,408.32 323.75,408.32 			"/>
			<polygon class="st8" points="322.96,418.15 266.71,418.15 265.92,408.32 323.75,408.32 			"/>
			<polygon class="st8" points="317.95,418.15 266.71,418.15 265.92,408.32 318.6,408.32 			"/>
		</g>
		<g>
			<path class="st9" d="M301.37,411.55c-0.51,0-2.25,0-2.76,0c-1.34,0-2.43,1.68-2.43,3.76c0,2.08,1.09,3.76,2.43,3.76
				c0.51,0,2.25,0,2.76,0c1.34,0,2.43-1.68,2.43-3.76C303.8,413.23,302.71,411.55,301.37,411.55z"/>
			<path class="st10" d="M303.8,415.31c0,2.08-1.09,3.76-2.43,3.76c-1.34,0-2.43-1.68-2.43-3.76c0-2.08,1.09-3.76,2.43-3.76
				C302.71,411.55,303.8,413.23,303.8,415.31z"/>
		</g>
		<g>
			<path class="st9" d="M256.95,411.55c-0.51,0-2.25,0-2.76,0c-1.34,0-2.43,1.68-2.43,3.76c0,2.08,1.09,3.76,2.43,3.76
				c0.51,0,2.25,0,2.76,0c1.34,0,2.43-1.68,2.43-3.76C259.37,413.23,258.29,411.55,256.95,411.55z"/>
			<path class="st10" d="M259.37,415.31c0,2.08-1.09,3.76-2.43,3.76c-1.34,0-2.43-1.68-2.43-3.76c0-2.08,1.09-3.76,2.43-3.76
				C258.29,411.55,259.37,413.23,259.37,415.31z"/>
		</g>
		<g>
			<path class="st6" d="M327.86,267.15H284c-2.63,0-4.33-2.04-3.82-4.56l10.03-48.74c0.52-2.52,3.07-4.56,5.69-4.56h43.86
				c7.3,0,12.05,5.68,10.61,12.69l-6.69,32.49C342.25,261.47,335.16,267.15,327.86,267.15z"/>
			<path class="st10" d="M327.86,267.15H284c-2.63,0-4.33-2.04-3.82-4.56l10.03-48.74c0.52-2.52,3.07-4.56,5.69-4.56h43.86
				c7.3,0,12.05,5.68,10.61,12.69l-6.69,32.49C342.25,261.47,335.16,267.15,327.86,267.15z"/>
			<path class="st6" d="M331.08,268.88h-55.59c-2.63,0-4.33-2.04-3.82-4.56l10.74-52.21c0.52-2.52,3.07-4.56,5.69-4.56h55.59
				c2.63,0,4.33,2.04,3.82,4.56l-10.74,52.21C336.26,266.84,333.71,268.88,331.08,268.88z"/>
			<path class="st8" d="M345.67,212.11l-0.99,4.84l-9.75,47.36c-0.31,1.55-1.88,2.8-3.49,2.8h-55.59c-1.61,0-2.66-1.25-2.35-2.8
				l10.75-52.2c0.31-1.55,1.88-2.8,3.49-2.8h55.59C344.95,209.32,346,210.57,345.67,212.11z"/>
			<path class="st8" d="M345.67,212.11l-0.99,4.84c-17.98-0.35-52.04-0.85-52.84,0.22c-1.1,1.45-15.99,49.94-15.99,49.94
				c-1.61,0-2.66-1.25-2.35-2.8l10.75-52.2c0.31-1.55,1.88-2.8,3.49-2.8h55.59C344.95,209.32,346,210.57,345.67,212.11z"/>
		</g>
		<path class="st6" d="M332.93,271.98l-4.69,136.4c-0.09,2.61-2.24,4.68-4.86,4.68h-71.74c-2.62,0-4.77-2.07-4.85-4.68l-4.69-136.4
			H332.93z"/>
		<path class="st8" d="M332.93,271.98l-4.69,136.4c-0.09,2.61-2.24,4.68-4.86,4.68h-16.52c-2.62,0-4.77-2.07-4.85-4.68l-4.69-136.4
			H332.93z"/>
		<g>
			<path class="st11" d="M261.52,333.01l3.64-6.3l0.95,0.57l-1.24-4.85l-4.85,1.24l1.08,0.64l-3.67,6.35c-1.1,1.91-1.1,4.28,0,6.19
				c1.1,1.91,3.15,3.09,5.35,3.09h4.72l0.04-4.72h-4.76C261.66,335.21,260.95,333.99,261.52,333.01z"/>
			<path class="st11" d="M271.6,317.02c0.49,0,0.99,0.24,1.27,0.73l3.95,6.84l-0.96,0.55l4.83,1.3l1.3-4.83l-1.08,0.63l-3.95-6.84
				c-1.1-1.91-3.15-3.09-5.35-3.09c-2.2,0-4.26,1.18-5.36,3.09l-2.71,4.69l4.06,2.4l2.74-4.74
				C270.61,317.27,271.1,317.02,271.6,317.02z"/>
			<path class="st11" d="M285.76,330.65l-2.34-4.06l-4.11,2.32l2.37,4.1c0.56,0.98-0.14,2.2-1.27,2.2h-7.26v-1.12l-3.54,3.54
				l3.54,3.54v-1.24h7.26c2.2,0,4.25-1.18,5.36-3.09C286.86,334.93,286.86,332.56,285.76,330.65z"/>
		</g>
		<g>
			<path class="st6" d="M334.87,269.89v8.32c0,0.86-0.7,1.56-1.56,1.56h-91.02c-0.87,0-1.56-0.7-1.56-1.56v-8.32
				c0-0.86,0.69-1.56,1.56-1.56h91.02C334.17,268.33,334.87,269.03,334.87,269.89z"/>
			<path class="st10" d="M299.9,269.89v8.32c0,0.86-0.7,1.56-1.56,1.56h-56.05c-0.87,0-1.56-0.7-1.56-1.56v-8.32
				c0-0.86,0.69-1.56,1.56-1.56h56.05C299.2,268.33,299.9,269.03,299.9,269.89z"/>
		</g>
	</g>
</g>
<g id="Trash_bin_2">
	<g>
		<g>
			<path class="st9" d="M381.82,259.96h-39.45l1.95-2.59c2.66-3.53,6.89-5.63,11.31-5.63h12.93c4.42,0,8.64,2.11,11.31,5.63
				L381.82,259.96z M348.27,257.2h27.65c-2.04-1.72-4.66-2.7-7.36-2.7h-12.93C352.92,254.5,350.31,255.48,348.27,257.2z"/>
		</g>
		<path class="st9" d="M406.56,270.37v3.43h-89.41v-3.43c0-8.12,6.58-14.7,14.71-14.7h60.01
			C399.98,255.68,406.56,262.26,406.56,270.37z"/>
		<path class="st8" d="M406.56,270.37v3.43h-34.19v-3.43c0-8.12,6.58-14.7,14.71-14.7h4.79
			C399.98,255.68,406.56,262.26,406.56,270.37z"/>
		<g>
			<polygon class="st9" points="396.59,418.15 340.34,418.15 339.55,408.32 397.38,408.32 			"/>
			<polygon class="st8" points="396.59,418.15 340.34,418.15 339.55,408.32 397.38,408.32 			"/>
			<polygon class="st8" points="391.58,418.15 340.34,418.15 339.55,408.32 392.23,408.32 			"/>
		</g>
		<g>
			<path class="st9" d="M375,411.55c-0.51,0-2.25,0-2.76,0c-1.34,0-2.43,1.68-2.43,3.76c0,2.08,1.09,3.76,2.43,3.76
				c0.51,0,2.25,0,2.76,0c1.34,0,2.43-1.68,2.43-3.76C377.42,413.23,376.34,411.55,375,411.55z"/>
			<path class="st10" d="M377.42,415.31c0,2.08-1.09,3.76-2.43,3.76s-2.43-1.68-2.43-3.76c0-2.08,1.09-3.76,2.43-3.76
				S377.42,413.23,377.42,415.31z"/>
		</g>
		<g>
			<path class="st9" d="M330.58,411.55c-0.51,0-2.25,0-2.76,0c-1.34,0-2.43,1.68-2.43,3.76c0,2.08,1.09,3.76,2.43,3.76
				c0.51,0,2.25,0,2.76,0c1.34,0,2.43-1.68,2.43-3.76C333,413.23,331.92,411.55,330.58,411.55z"/>
			<path class="st10" d="M333,415.31c0,2.08-1.09,3.76-2.43,3.76s-2.43-1.68-2.43-3.76c0-2.08,1.09-3.76,2.43-3.76
				S333,413.23,333,415.31z"/>
		</g>
		<path class="st9" d="M406.56,271.98l-4.69,136.4c-0.09,2.61-2.24,4.68-4.86,4.68h-71.74c-2.62,0-4.77-2.07-4.85-4.68l-4.69-136.4
			H406.56z"/>
		<path class="st8" d="M406.56,271.98l-4.69,136.4c-0.09,2.61-2.24,4.68-4.86,4.68h-16.52c-2.62,0-4.77-2.07-4.85-4.68l-4.69-136.4
			H406.56z"/>
		<g>
			<path class="st11" d="M335.15,333.01l3.64-6.3l0.95,0.57l-1.24-4.85l-4.85,1.24l1.08,0.64l-3.67,6.35c-1.1,1.91-1.1,4.28,0,6.19
				c1.1,1.91,3.15,3.09,5.35,3.09h4.72l0.04-4.72h-4.76C335.29,335.21,334.58,333.99,335.15,333.01z"/>
			<path class="st11" d="M345.23,317.02c0.49,0,0.99,0.24,1.27,0.73l3.95,6.84l-0.96,0.55l4.83,1.3l1.3-4.83l-1.08,0.63l-3.95-6.84
				c-1.1-1.91-3.15-3.09-5.35-3.09c-2.2,0-4.26,1.18-5.36,3.09l-2.71,4.69l4.06,2.4l2.74-4.74
				C344.24,317.27,344.73,317.02,345.23,317.02z"/>
			<path class="st11" d="M359.39,330.65l-2.34-4.06l-4.11,2.32l2.37,4.1c0.56,0.98-0.14,2.2-1.27,2.2h-7.26v-1.12l-3.54,3.54
				l3.54,3.54v-1.24h7.26c2.2,0,4.25-1.18,5.36-3.09C360.49,334.93,360.49,332.56,359.39,330.65z"/>
		</g>
		<g>
			<path class="st9" d="M408.5,269.89v8.32c0,0.86-0.7,1.56-1.56,1.56h-91.02c-0.87,0-1.56-0.7-1.56-1.56v-8.32
				c0-0.86,0.69-1.56,1.56-1.56h91.02C407.8,268.33,408.5,269.03,408.5,269.89z"/>
			<path class="st10" d="M373.53,269.89v8.32c0,0.86-0.7,1.56-1.56,1.56h-56.05c-0.87,0-1.56-0.7-1.56-1.56v-8.32
				c0-0.86,0.69-1.56,1.56-1.56h56.05C372.83,268.33,373.53,269.03,373.53,269.89z"/>
		</g>
	</g>
</g>
<g id="Trash_bag">
	<g>
		<g>
			<path class="st6" d="M150.31,303.9l0.99-3.09l-5.4-1.73l-0.99,3.09c-0.27,0.83-0.87,1.51-1.67,1.87l0,0
				c-0.79,0.36-1.4,1.04-1.67,1.87l-5.69,17.74c-0.28,0.86,0.2,1.79,1.06,2.06l6.14,1.97c0.86,0.28,1.79-0.2,2.06-1.06l5.69-17.74
				c0.27-0.83,0.17-1.74-0.27-2.49l0,0C150.14,305.63,150.05,304.73,150.31,303.9z"/>
			<path class="st8" d="M150.31,303.9l0.99-3.09l-5.4-1.73l-0.99,3.09c-0.27,0.83-0.87,1.51-1.67,1.87l0,0
				c-0.79,0.36-1.4,1.04-1.67,1.87l-5.69,17.74c-0.28,0.86,0.2,1.79,1.06,2.06l6.14,1.97c0.86,0.28,1.79-0.2,2.06-1.06l5.69-17.74
				c0.27-0.83,0.17-1.74-0.27-2.49l0,0C150.14,305.63,150.05,304.73,150.31,303.9z"/>
			<path class="st12" d="M149.48,313.14l1.37-4.26c0.27-0.83,0.17-1.74-0.27-2.49c-0.44-0.76-0.53-1.66-0.27-2.49l0.99-3.09
				l-5.4-1.73l-0.99,3.09c-0.27,0.83-0.87,1.51-1.67,1.87c-0.79,0.36-1.4,1.04-1.67,1.87l-1.37,4.26L149.48,313.14z"/>
			<path class="st13" d="M138.22,316.37l-2.33,7.27c-0.28,0.86,0.2,1.79,1.06,2.06l6.14,1.97c0.86,0.28,1.79-0.2,2.06-1.06
				l2.33-7.27L138.22,316.37z"/>
			<path class="st6" d="M150.78,302.38l-5.37-1.72c-0.28-0.09-0.43-0.39-0.34-0.66l0.46-1.42c0.09-0.28,0.39-0.43,0.66-0.34
				l5.37,1.72c0.28,0.09,0.43,0.39,0.34,0.66l-0.46,1.42C151.35,302.32,151.06,302.47,150.78,302.38z"/>
		</g>
		<g>
			<path class="st6" d="M132.13,308.97l0.99-3.09l-5.4-1.73l-0.99,3.09c-0.27,0.83-0.87,1.51-1.67,1.87l0,0
				c-0.79,0.36-1.4,1.04-1.67,1.87l-5.69,17.74c-0.28,0.86,0.2,1.79,1.06,2.06l6.14,1.97c0.86,0.28,1.79-0.2,2.06-1.06l5.69-17.74
				c0.27-0.83,0.17-1.74-0.27-2.49l0,0C131.96,310.7,131.87,309.8,132.13,308.97z"/>
			<path class="st8" d="M132.13,308.97l0.99-3.09l-5.4-1.73l-0.99,3.09c-0.27,0.83-0.87,1.51-1.67,1.87l0,0
				c-0.79,0.36-1.4,1.04-1.67,1.87l-5.69,17.74c-0.28,0.86,0.2,1.79,1.06,2.06l6.14,1.97c0.86,0.28,1.79-0.2,2.06-1.06l5.69-17.74
				c0.27-0.83,0.17-1.74-0.27-2.49l0,0C131.96,310.7,131.87,309.8,132.13,308.97z"/>
			<path class="st12" d="M131.3,318.21l1.37-4.26c0.27-0.83,0.17-1.74-0.27-2.49c-0.44-0.76-0.53-1.66-0.27-2.49l0.99-3.09
				l-5.4-1.73l-0.99,3.09c-0.27,0.83-0.87,1.51-1.67,1.87c-0.79,0.36-1.4,1.04-1.67,1.87l-1.37,4.26L131.3,318.21z"/>
			<path class="st13" d="M120.04,321.44l-2.33,7.27c-0.28,0.86,0.2,1.79,1.06,2.06l6.14,1.97c0.86,0.28,1.79-0.2,2.06-1.06
				l2.33-7.27L120.04,321.44z"/>
			<path class="st6" d="M132.6,307.45l-5.37-1.72c-0.28-0.09-0.43-0.39-0.34-0.66l0.46-1.42c0.09-0.28,0.39-0.43,0.66-0.34
				l5.37,1.72c0.28,0.09,0.43,0.39,0.34,0.66l-0.46,1.42C133.17,307.39,132.88,307.54,132.6,307.45z"/>
		</g>
		<g>
			<path class="st6" d="M137.55,300.06l-0.2-3.24l-5.66,0.35l0.2,3.24c0.05,0.87-0.26,1.72-0.87,2.35l0,0
				c-0.61,0.63-0.92,1.48-0.87,2.35l1.62,25.94c0.06,0.9,0.84,1.59,1.74,1.53l6.44-0.4c0.9-0.06,1.59-0.84,1.53-1.74l-1.62-25.94
				c-0.05-0.87-0.47-1.68-1.16-2.22l0,0C138.02,301.74,137.6,300.93,137.55,300.06z"/>
			<path class="st13" d="M140.37,312.65l-0.51-8.14c-0.05-0.87-0.47-1.68-1.16-2.22c-0.68-0.54-1.1-1.35-1.16-2.22l-0.2-3.24
				l-5.66,0.35l0.2,3.24c0.05,0.87-0.26,1.72-0.87,2.35c-0.61,0.63-0.92,1.48-0.87,2.35l0.51,8.14L140.37,312.65z"/>
			<path class="st13" d="M131.29,323.43l0.48,7.62c0.06,0.9,0.84,1.59,1.74,1.53l6.44-0.4c0.9-0.06,1.59-0.84,1.53-1.74l-0.48-7.62
				L131.29,323.43z"/>
			<path class="st6" d="M137.43,298.48l-5.63,0.35c-0.29,0.02-0.54-0.2-0.56-0.49l-0.09-1.49c-0.02-0.29,0.2-0.54,0.49-0.56
				l5.63-0.35c0.29-0.02,0.54,0.2,0.56,0.49l0.09,1.49C137.94,298.21,137.72,298.46,137.43,298.48z"/>
		</g>
		<g>
			<path class="st6" d="M118.11,310.03l-2.1-2.47l-4.32,3.67l2.1,2.47c0.56,0.66,0.82,1.54,0.71,2.4l0,0
				c-0.11,0.86,0.14,1.74,0.71,2.4l16.82,19.81c0.59,0.69,1.62,0.77,2.31,0.19l4.92-4.17c0.69-0.59,0.77-1.62,0.19-2.31
				l-16.82-19.81c-0.56-0.66-1.38-1.06-2.26-1.09l0,0C119.49,311.09,118.67,310.7,118.11,310.03z"/>
			<path class="st13" d="M127.9,318.43l-5.28-6.22c-0.56-0.66-1.38-1.06-2.26-1.09c-0.87-0.03-1.69-0.42-2.26-1.09l-2.1-2.47
				l-4.32,3.67l2.1,2.47c0.56,0.66,0.82,1.54,0.71,2.4c-0.11,0.86,0.14,1.74,0.71,2.4l5.28,6.22L127.9,318.43z"/>
			<path class="st13" d="M127.08,332.5l4.94,5.82c0.59,0.69,1.62,0.77,2.31,0.19l4.92-4.17c0.69-0.59,0.77-1.62,0.19-2.31
				l-4.94-5.82L127.08,332.5z"/>
			<path class="st6" d="M117.07,308.84l-4.3,3.65c-0.22,0.19-0.55,0.16-0.74-0.06l-0.97-1.14c-0.19-0.22-0.16-0.55,0.06-0.74
				l4.3-3.65c0.22-0.19,0.55-0.16,0.74,0.06l0.97,1.14C117.32,308.31,117.3,308.65,117.07,308.84z"/>
		</g>
		<path class="st9" d="M138.36,419.07c0,0,49.32-1.84,54.76-1.84c5.43,0,1.22-4.44,1.22-4.44s0.89-15.22,0-21.04
			c-0.89-5.83-16.29-46.87-26.79-56.57c-10.51-9.7-10.38-13.35-10.38-13.35s1.65,0.36,1.65-2.75c0-2.79-11.24-7.31-19.34-7.92
			c-5.44-0.41-18.11,4.22-24.3,4.61c-6.19,0.39-22.25,20.96-19.9,24.83c0.79,1.31,14.32-2.83,14.32-2.83s-0.61,10.65-2.79,19.02
			c-2.18,8.37-7.65,22.92-7.65,31.12c0,8.2,6.92,24.64,6.92,24.64s-2.91,1.96-2.91,3.61c0,1.65,9.1,0.92,9.1,0.92
			S129.62,419.07,138.36,419.07z"/>
		<path class="st12" d="M193.11,417.23c-5.43,0-54.75,1.84-54.75,1.84c-8.73,0-26.1-2-26.1-2s-9.1,0.73-9.1-0.92
			c0-1.65,2.91-3.61,2.91-3.61s-2.37-5.64-4.33-11.96c-1.39-4.47-2.58-9.29-2.58-12.68c0-8.2,5.46-22.75,7.64-31.12
			c2.19-8.38,2.8-19.03,2.8-19.03s0,0-0.01,0.01c-0.35,0.1-8.03,2.44-12,2.97c-1.24,0.17-2.13,0.16-2.31-0.15
			c-2.35-3.87,13.71-24.44,19.9-24.83c6.19-0.39,18.86-5.02,24.31-4.6c8.1,0.6,19.34,5.12,19.34,7.92c0,3.11-1.65,2.75-1.65,2.75
			s-0.12,3.64,10.38,13.35c10.51,9.7,25.91,50.74,26.79,56.57c0.18,1.23,0.29,2.89,0.35,4.73c0.2,6.86-0.35,16.32-0.35,16.32
			S198.55,417.23,193.11,417.23z"/>
		<path class="st8" d="M118.41,325.92c-3.78,2.24-8.82,11.84-8.82,11.84s0,0-0.01,0.01c-0.35,0.1-8.03,2.44-12,2.97
			C102.84,332.57,114.63,327.41,118.41,325.92z"/>
		<path class="st8" d="M119.58,325.48c-0.09,0.03-0.51,0.17-1.17,0.44C118.81,325.68,119.21,325.52,119.58,325.48z"/>
		<path class="st8" d="M157.16,321.82c0,0-11.27-5.33-15.71-6.06s-20.7,4.85-20.7,4.85s15.19-8.74,20.7-7.52
			C146.97,314.31,155.58,318.26,157.16,321.82z"/>
		<path class="st8" d="M193.11,417.23c-5.43,0-54.75,1.84-54.75,1.84c-8.73,0-26.1-2-26.1-2s-9.1,0.73-9.1-0.92
			c0-1.65,2.91-3.61,2.91-3.61s-2.37-5.64-4.33-11.96c9.73,5.71,23.6,12.1,37.23,12.33c0,0-18.33-7.89-22.27-16.72
			c0,0,26.34,13.99,33.04,14.35c6.71,0.37,33.65,2.95,36.08-0.76c1.52-2.33,5.84-8.8,8.88-13.32c0.2,6.86-0.35,16.32-0.35,16.32
			S198.55,417.23,193.11,417.23z"/>
	</g>
</g>
<g id="Character">
	<g>
		<path class="st14" d="M204.66,401.16l4.92,0.08c4.99-23.46,8.52-52.48,10.72-74.38c0.34-3.43,0.66-6.68,0.93-9.71
			c0.13-1.44,0.26-2.83,0.37-4.16c0.59-6.58,0.99-11.8,1.24-15.03c0.18-2.35,0.26-3.65,0.26-3.65h-17.76l0.17,4.52l0.55,14.93
			l0.06,1.71l0.37,9.86l0.62,16.78C201.02,365.74,204.66,401.16,204.66,401.16z"/>
		<path class="st14" d="M164.83,399.9l4.84,0.91c9.68-24.2,18.78-55.19,24.69-76.84c0.91-3.35,1.76-6.49,2.51-9.34
			c0.04-0.15,0.07-0.28,0.11-0.42c1.49-5.65,2.64-10.15,3.35-13.01c0.55-2.24,0.85-3.46,0.85-3.46l-17.5-3.02l-0.99,7.36
			l-1.46,10.81l-0.28,2.12l-0.99,7.37l-2.66,19.76C167.28,364.38,164.83,399.9,164.83,399.9z"/>
		<path class="st8" d="M181.24,312.89l15.64,1.75c0.04-0.15,0.07-0.28,0.11-0.42c1.49-5.65,2.64-10.15,3.35-13.01l-17.64,0.87
			L181.24,312.89z"/>
		<path class="st8" d="M205.52,298.83l0.55,14.93l0.06,1.71l15.11,1.68c0.13-1.44,0.26-2.83,0.37-4.16
			c0.59-6.58,0.99-11.8,1.24-15.03L205.52,298.83z"/>
		<path class="st9" d="M219.17,417.46c-0.91-0.74-1.96-1.31-3.08-1.67l0,0c0,0-3.35-3.32-4.95-13.31l-4.38-1.14
			c-1.52-0.37-3.11,0.25-3.98,1.56c-0.12,0.18-0.22,0.37-0.28,0.58c-0.23,1.07-0.38,2.16-0.47,3.25
			c-0.44,3.38-0.06,10.97-0.06,10.97h0.79l0.31-6.89c0.12-2.34,1.91,0.4,2.42,2.92c0.51,2.52,1.6,5.2,6.73,5.32
			C218.2,419.16,220.68,418.93,219.17,417.46z"/>
		<path class="st9" d="M202.63,402.97c-0.29-2.34-0.38-6.4-0.38-6.4l9.73,1.08c0,0-1.18,4.62-0.21,8.09
			C206.87,404.46,202.63,402.97,202.63,402.97z"/>
		<path class="st9" d="M179.58,417.46c-0.91-0.74-1.96-1.31-3.08-1.67l0,0c0,0-3.35-3.32-4.95-13.31l-4.38-1.14
			c-1.52-0.37-3.11,0.25-3.98,1.56c-0.12,0.18-0.22,0.37-0.28,0.58c-0.23,1.07-0.38,2.16-0.47,3.25
			c-0.44,3.38-0.06,10.97-0.06,10.97h0.79l0.31-6.89c0.12-2.34,1.91,0.4,2.42,2.92c0.51,2.52,1.6,5.2,6.73,5.32
			C178.61,419.16,181.09,418.93,179.58,417.46z"/>
		<path class="st9" d="M163.03,402.97c-0.29-2.34-0.38-6.4-0.38-6.4l9.73,1.08c0,0-1.18,4.62-0.21,8.09
			C167.28,404.46,163.03,402.97,163.03,402.97z"/>
		<path class="st6" d="M179.55,308.07l18.51,2.36l0.72,0.09l3.81-13.95l1,14.95l19.84-1.04c8.84-51.87-6.27-64.12-6.27-64.12
			l-26.91,5.42c-12.19,20.71-9.29,44.79-9.29,44.79L179.55,308.07z"/>
		<path class="st12" d="M179.55,308.07l18.51,2.36l0.72,0.09l3.81-13.95l1,14.95l19.84-1.04c8.84-51.87-6.27-64.12-6.27-64.12
			l-26.91,5.42c-12.19,20.71-9.29,44.79-9.29,44.79L179.55,308.07z"/>
		<path class="st8" d="M198.06,310.44l0.72,0.09l3.81-13.95c0,0-8.16-13.94-5.61-21.2C196.61,275.88,187.82,288.92,198.06,310.44z"
			/>
		<g>
			<path class="st6" d="M153.97,214.04l0.99-3.09l-5.4-1.73l-0.99,3.09c-0.27,0.83-0.87,1.51-1.67,1.87l0,0
				c-0.79,0.36-1.4,1.04-1.67,1.87l-5.69,17.74c-0.28,0.86,0.2,1.79,1.06,2.06l6.14,1.97c0.86,0.28,1.79-0.2,2.06-1.06l5.69-17.74
				c0.27-0.83,0.17-1.74-0.27-2.49l0,0C153.8,215.77,153.71,214.87,153.97,214.04z"/>
			<path class="st8" d="M153.97,214.04l0.99-3.09l-5.4-1.73l-0.99,3.09c-0.27,0.83-0.87,1.51-1.67,1.87l0,0
				c-0.79,0.36-1.4,1.04-1.67,1.87l-5.69,17.74c-0.28,0.86,0.2,1.79,1.06,2.06l6.14,1.97c0.86,0.28,1.79-0.2,2.06-1.06l5.69-17.74
				c0.27-0.83,0.17-1.74-0.27-2.49l0,0C153.8,215.77,153.71,214.87,153.97,214.04z"/>
			<path class="st12" d="M153.14,223.28l1.37-4.26c0.27-0.83,0.17-1.74-0.27-2.49c-0.44-0.76-0.53-1.66-0.27-2.49l0.99-3.09
				l-5.4-1.73l-0.99,3.09c-0.27,0.83-0.87,1.51-1.67,1.87c-0.79,0.36-1.4,1.04-1.67,1.87l-1.37,4.26L153.14,223.28z"/>
			<path class="st13" d="M141.88,226.51l-2.33,7.27c-0.28,0.86,0.2,1.79,1.06,2.06l6.14,1.97c0.86,0.28,1.79-0.2,2.06-1.06
				l2.33-7.27L141.88,226.51z"/>
			<path class="st6" d="M154.44,212.52l-5.37-1.72c-0.28-0.09-0.43-0.39-0.34-0.66l0.46-1.42c0.09-0.28,0.39-0.43,0.66-0.34
				l5.37,1.72c0.28,0.09,0.43,0.39,0.34,0.66l-0.46,1.42C155.01,212.46,154.72,212.61,154.44,212.52z"/>
		</g>
		<g>
			<path class="st6" d="M251.67,182.81l-0.2-3.24l-5.66,0.35l0.2,3.24c0.05,0.87-0.26,1.72-0.87,2.35l0,0
				c-0.61,0.63-0.92,1.48-0.87,2.35l1.62,25.94c0.06,0.9,0.83,1.59,1.74,1.53l6.44-0.4c0.9-0.06,1.59-0.84,1.53-1.74l-1.62-25.94
				c-0.05-0.87-0.47-1.68-1.16-2.22l0,0C252.14,184.49,251.72,183.68,251.67,182.81z"/>
			<path class="st13" d="M254.49,195.39l-0.51-8.14c-0.05-0.87-0.47-1.68-1.16-2.22c-0.68-0.54-1.1-1.35-1.16-2.22l-0.2-3.24
				l-5.66,0.35l0.2,3.24c0.05,0.87-0.26,1.72-0.87,2.35c-0.61,0.63-0.92,1.48-0.87,2.35l0.51,8.14L254.49,195.39z"/>
			<path class="st13" d="M245.42,206.18l0.48,7.62c0.06,0.9,0.84,1.59,1.74,1.53l6.44-0.4c0.9-0.06,1.59-0.84,1.53-1.74l-0.48-7.62
				L245.42,206.18z"/>
			<path class="st6" d="M251.55,181.23l-5.63,0.35c-0.29,0.02-0.54-0.2-0.56-0.49l-0.09-1.49c-0.02-0.29,0.2-0.54,0.49-0.56
				l5.63-0.35c0.29-0.02,0.54,0.2,0.56,0.49l0.09,1.49C252.07,180.96,251.85,181.21,251.55,181.23z"/>
		</g>
		<path class="st14" d="M151.52,229.33c0,0-0.1-1.67,0-3.01c0.1-1.34-6.63-8.66-7.73-8.27c-1.09,0.38-3.46,5.07-2.73,6.64
			c0.73,1.57,6.01,6.31,7.28,6.67C149.62,231.71,151.52,229.33,151.52,229.33z"/>
		<path class="st14" d="M175.27,219.63c0,0-2.97,15.09-6.26,18.13c-3.28,3.04-18.22-12.43-18.22-12.43l-2.94,3.14
			c0,0,14.73,19.44,22.63,16.12c7.9-3.32,14.19-20.94,14.19-20.94L175.27,219.63z"/>
		<g>
			<polygon class="st6" points="176.8,213.43 171.78,225.11 183.01,232.8 190.79,225.11 			"/>
			<polygon class="st10" points="171.78,225.12 178.43,229.67 183.01,232.8 186.78,229.07 190.78,225.12 176.8,213.44 			"/>
			<path class="st8" d="M178.43,229.67l4.58,3.13l3.76-3.73c-3.55-5.03-7.57-9.77-7.57-9.77S177.45,224.35,178.43,229.67z"/>
		</g>
		<path class="st14" d="M221.8,211.07c0,0,10.18,11.53,14.55,12.5c4.37,0.97,9.47-19.92,9.47-19.92l4.13,1.23
			c0,0-2.91,24.22-11.41,25.34c-8.5,1.12-22.82-10.92-22.82-10.92L221.8,211.07z"/>
		<g>
			<path class="st15" d="M206.59,183.36c0,0,0.88,2.36,2,3.83c0,0-0.87,1.06-2.35,0.67L206.59,183.36z"/>
			<g>
				<path class="st9" d="M207.72,181.19c0.05,0.7-0.29,1.29-0.76,1.32c-0.47,0.03-0.88-0.51-0.93-1.21
					c-0.05-0.7,0.29-1.29,0.76-1.32C207.25,179.95,207.67,180.49,207.72,181.19z"/>
				<path class="st9" d="M206.59,180.03l1.48-0.7C208.07,179.33,207.4,180.66,206.59,180.03z"/>
			</g>
			<path class="st16" d="M204.88,176.57c0,0,1.48-0.62,3.43,0.55"/>
			<path class="st17" d="M205.03,181.75c0,2.04,0.9,3.69,2.02,3.69c1.11,0,2.02-1.65,2.02-3.69c0-2.04-0.9-3.69-2.02-3.69
				C205.93,178.06,205.03,179.71,205.03,181.75z"/>
			<path class="st14" d="M191.74,194.1c0.07,0.06,0.15,0.13,0.23,0.17c1.09,0.77,2.34,1.52,3.76,1.84c3.97,0.92,6.69,0.37,8.46-1.43
				c0.01,0,0.01,0,0.01,0c2.48-2.7,3.1-7.48,2.75-13.24c-0.15-2.64-0.53-4.94-1.26-6.73c-0.01-0.02-0.01-0.08-0.02-0.1
				c-0.04-0.07-0.06-0.17-0.1-0.24c-1.09-2.5-2.9-4.12-5.78-4.8c-1-0.23-2.13-0.36-3.41-0.38
				C185.15,169.06,183.13,187.68,191.74,194.1z"/>
			<path class="st8" d="M191.98,194.27c1.09,0.77,2.34,1.36,3.76,1.68c3.97,0.92,6.69,0.24,8.46-1.58
				c-1.95,0.43-4.58,0.59-7.13-0.58C195.46,193.05,193.67,193.43,191.98,194.27z"/>
			<path class="st14" d="M190.84,204.43c-0.69,3.2,3.45,4.51,3.45,4.51c6.78-2.9,8.04-6.5,8.04-6.5
				c-5.66-2.95-4.02-11.29-4.02-11.29l-1.15,0.57l-8.08,1.58c0,0,2.24,4.3,2.54,5.28c0,0.01,0.01,0.02,0.01,0.03
				C193.15,203.72,190.84,204.43,190.84,204.43z"/>
			<path class="st9" d="M205.7,174.64c0,0,0.62,7.88-6.85,11.27c0,0-3.21,8.19-7.93,8.3c-6.44,0.16-12.11-9-9.88-18.33
				C183.93,163.78,202.26,162.79,205.7,174.64z"/>
			<path class="st14" d="M202.64,183.64c0-1.23-0.99-3.29-2.9-3.01c-1.98,0.29-3.07,5.17,1.79,6.26
				C202.22,187.04,202.64,186.21,202.64,183.64z"/>
			<path class="st9" d="M191.98,166.26c0,0,7.52-1.9,11.68,1.12c4.85,3.53,6.7,7.18,0.95,12.85c0,0-12.63-4.09-16.82-3.23
				c-4.2,0.87-7.2,2.09-7.2,2.09C179.7,170.76,187.78,164.56,191.98,166.26z"/>
			<line class="st17" x1="209.07" y1="181.17" x2="201.52" y2="181.17"/>
			<path class="st9" d="M186.41,170.95c0,0-7.78-6.48-14.33-1.77c-8.09,5.81,0.91,28.2,1.46,33.77c0.55,5.57-2.18,8.12-2.18,8.12
				s6.02,0.13,8.2-9.4c2.18-9.53-4.58-25.49,4.08-23.61L186.41,170.95z"/>
		</g>
		<g>
			<path class="st6" d="M213.34,203.65c0,0-8.98-3.02-22.51,0.66c-13.53,3.68-14.03,9.12-14.03,9.12s8.57,18.33,9.92,39.09
				l35.26-1.24C221.99,251.28,226.19,221.99,213.34,203.65z"/>
			<path class="st10" d="M176.8,213.43c0,0,8.57,18.33,9.93,39.09l35.26-1.24c0,0,0.59-4.08,0.65-10.14
				c0.05-4.23-0.16-9.43-0.98-14.89c-1.18-7.68-3.6-15.88-8.31-22.6c0,0-8.98-3.02-22.5,0.67C177.3,208,176.8,213.43,176.8,213.43z"
				/>
		</g>
		<path class="st8" d="M213.24,219.29c0,0,2.06,16.65,9.4,21.85c0.05-4.23-0.16-9.43-0.98-14.89L213.24,219.29z"/>
		<g>
			<path class="st6" d="M213.34,203.65c10.47,4.3,18.27,12.81,18.27,12.81l-8.51,10.42c0,0-4.23-0.88-6.79-3.19
				C208.79,216.91,213.34,203.65,213.34,203.65z"/>
			<path class="st10" d="M213.34,203.65c10.47,4.3,18.27,12.81,18.27,12.81l-8.51,10.42c0,0-4.23-0.88-6.79-3.19
				C208.79,216.91,213.34,203.65,213.34,203.65z"/>
		</g>
		<path class="st14" d="M245.55,204.68c0,0,0.1-1.67,0-3.01c-0.1-1.34,6.63-8.66,7.73-8.27c1.09,0.38,3.46,5.07,2.73,6.64
			c-0.73,1.57-6.01,6.31-7.28,6.67C247.45,207.07,245.55,204.68,245.55,204.68z"/>
	</g>
</g>
</svg>
